inDegrees=yes
name=ik_tiny_file
DataType=double
version=3
OpenSimVersion=4.4-2022-07-23-0e9fedc
endheader
time	pelvis_tilt	pelvis_list	pelvis_rotation	pelvis_tx	pelvis_ty	pelvis_tz	hip_flexion_r	hip_adduction_r	hip_rotation_r	knee_angle_r	knee_angle_r_beta	ankle_angle_r	subtalar_angle_r	mtp_angle_r	hip_flexion_l	hip_adduction_l	hip_rotation_l	knee_angle_l	knee_angle_l_beta	ankle_angle_l	subtalar_angle_l	mtp_angle_l	lumbar_extension	lumbar_bending	lumbar_rotation	arm_flex_r	arm_add_r	arm_rot_r	elbow_flex_r	pro_sup_r	wrist_flex_r	wrist_dev_r	arm_flex_l	arm_add_l	arm_rot_l	elbow_flex_l	pro_sup_l	wrist_flex_l	wrist_dev_l
1.98	-11.57605545038034	-20.59856096364334	-11.4636990403212	0	0.9399999999999999	0	42.24866548387488	-10.58385117107415	0	58.97685582499922	1.029340316620233	-4.986242166262469	0	0	42.24866548387488	-10.58385117107415	0	58.97685582499922	1.029340316620233	-4.986242166262469	0	0	14.48201878170567	3.044144697369768	-5.146130743678177	-47.67922765875074	50.71301066376484	70.99812749636541	0.0184470152261224	46.78443561749368	0	5.067250581632177	-9.221122359253002	-20.44479036944375	-13.19283921730492	0.08688597361825399	46.78443561749368	0	5.067250581632177
2	-11.57859389790171	-20.59852920133037	-11.46393242152958	0	0.9399999999999999	0	42.24916800877035	-10.58347829734597	0	58.97700214999691	1.029342870473221	-4.986245646796215	0	0	42.24916800877035	-10.58347829734597	0	58.97700214999691	1.029342870473221	-4.986245646796215	0	0	14.48430797909728	3.040331692613812	-5.146647082288152	-47.67623163080737	50.71640028661913	71.00812560288853	0.01844245592166221	46.78353323104991	0	5.067174397131084	-9.225601903836518	-20.44937137405724	-13.1884285084162	0.08618629427462372	46.78353323104991	0	5.067174397131084
2.02	-11.57513517067442	-20.59857005343893	-11.46437711049906	0	0.9399999999999999	0	42.249598366241	-10.58315923005141	0	58.97712750181122	1.029345058275104	-4.986248626999951	0	0	42.249598366241	-10.58315923005141	0	58.97712750181122	1.029345058275104	-4.986248626999951	0	0	14.48338517367528	3.039254582236321	-5.146258157345622	-47.68753390713194	50.71884777282429	71.00454294069873	0.01844214181234124	46.78276091123296	0	5.067109247659063	-9.227971290948828	-20.45085499907681	-13.19196350500462	0.0865925404810147	46.78276091123296	0	5.067109247659063
2.04	-11.57444711074065	-20.59956821044345	-11.46406283089567	0	0.9399999999999999	0	42.25009735456341	-10.5827892932973	0	58.97727280776116	1.029347594342353	-4.986252082591723	0	0	42.25009735456341	-10.5827892932973	0	58.97727280776116	1.029347594342353	-4.986252082591723	0	0	14.48421957090471	3.038613623458159	-5.145714427955705	-47.68327665840975	50.72316816719969	71.01333458435789	0.01844108742333077	46.78186541384037	0	5.067033732484629	-9.236312516592937	-20.45453192493708	-13.19147185062218	0.08594176415830511	46.78186541384037	0	5.067033732484629
2.06	-11.57147051497373	-20.5978538421039	-11.46522866525457	0	0.9399999999999999	0	42.25052707777456	-10.58247097443097	0	58.97739798718305	1.029349779135421	-4.98625505799415	0	0	42.25052707777456	-10.58247097443097	0	58.97739798718305	1.029349779135421	-4.98625505799415	0	0	14.48340782194825	3.036977682215847	-5.145682373128707	-47.69025797603015	50.72193379636147	71.00802583059529	0.01844137037416986	46.78109471387427	0	5.06696879601744	-9.237590385842974	-20.45630764752528	-13.19606261500459	0.0862912750292177	46.78109471387427	0	5.06696879601744
2.08	-11.56845584490152	-20.5975511240254	-11.46527442954349	0	0.9399999999999999	0	42.25094092567743	-10.58216462348786	0	58.97751857489634	1.029351883788055	-4.986257923077277	0	0	42.25094092567743	-10.58216462348786	0	58.97751857489634	1.029351883788055	-4.986257923077277	0	0	14.48384185767494	3.039862946454097	-5.144234655994221	-47.69296106646507	50.72581197446322	71.01202200994088	0.01844786462318336	46.78035286956187	0	5.066906334508134	-9.24326507366326	-20.45949704971622	-13.19848611440805	0.08614088503415818	46.78035286956187	0	5.066906334508134
2.1	-11.57350195395247	-20.5978827346136	-11.46446751776471	0	0.9399999999999999	0	42.25144361755194	-10.58179240281777	0	58.97766497767689	1.02935443899861	-4.986261403645834	0	0	42.25144361755194	-10.58179240281777	0	58.97766497767689	1.02935443899861	-4.986261403645834	0	0	14.48649316999363	3.037848476229725	-5.146676251737542	-47.68918489115623	50.72926166187322	71.02142483092854	0.01844826530189432	46.77945152315993	0	5.06683045402549	-9.245041224962989	-20.46269386763226	-13.19260672927861	0.08551277266439469	46.77945152315993	0	5.06683045402549
2.12	-11.56818335799941	-20.59735053041235	-11.46604226891269	0	0.9399999999999999	0	42.25186811762317	-10.58147832006468	0	58.97778864311854	1.029356597367737	-4.986264342377621	0	0	42.25186811762317	-10.58147832006468	0	58.97778864311854	1.029356597367737	-4.986264342377621	0	0	14.48415361310343	3.038855231179546	-5.144199252890905	-47.69929902527585	50.73081384959059	71.0184093171644	0.01845139974761072	46.77869081785568	0	5.06676646525692	-9.248893884508789	-20.45980332414788	-13.19796207061666	0.08593221351712947	46.77869081785568	0	5.06676646525692
